Coordinates
version=1
nRows=21
nColumns=33
inDegrees=yes

Units are S.I. units (second, meters, Newtons, ...)
Angles are in degrees.

endheader
time	ground_thorax_rot_x	ground_thorax_rot_y	ground_thorax_rot_z	ground_thorax_tx	ground_thorax_ty	ground_thorax_tz	clav_prot_r	clav_elev_r	scapula_abduction_r	scapula_elevation_r	scapula_upward_rot_r	scapula_winging_r	shoulder_elv_r	plane_of_elev_r	axial_rot_r	elbow_flexion_r	pro_sup_r	wrist_flex_r	wrist_dev_r	clav_prot_l	clav_elev_l	scapula_abduction_l	scapula_elevation_l	scapula_upward_rot_l	scapula_winging_l	shoulder_elv_l	plane_of_elev_l	axial_rot_l	elbow_flexion_l	pro_sup_l	wrist_flex_l	wrist_dev_l
      7.67000000	     18.59777446	     34.81103337	     57.08011197	      0.69022198	    800.40783689	    -39.98359601	     13.20940247	     35.33625354	     27.47216597	     45.00000000	    -45.00000000	    276.20153058	  -1369.39645938	     21.55076247	   -166.05623149	   2519.52874465	    176.27393436	     13.26382596	     14.57516407	    -11.90306738	    -45.00000000	    -36.98398670	     45.00000000	    -45.00000000	   3702.37019872	  -2444.14111326	     25.47981444	     30.61062149	   1068.18331734	     42.42834506	     13.01084723	    -14.20228709
      7.68000000	     18.54420184	     34.84959231	     57.13240019	      1.59446170	    799.55430014	    -39.76603055	     13.14754767	     35.69700606	     27.35439444	     45.00000000	    -45.00000000	    276.34440165	  -1369.34298412	     21.43437878	   -166.00179524	   2519.34479492	    176.46306421	     13.33124805	     14.43703980	    -11.93965848	    -45.00000000	    -36.69646887	     45.00000000	    -45.00000000	   3702.23575816	  -2444.16932121	     25.47403856	     30.42709468	   1068.23212077	     42.54394341	     12.78370879	    -13.98351201
      7.69000000	     18.31242967	     34.93333225	     57.46368785	      2.49197583	    798.70249665	    -39.55055210	     13.25459086	     35.41788368	     26.98345406	     45.00000000	    -45.00000000	    276.45891676	  -1369.21866938	     21.62800352	   -165.95260422	   2519.41745519	    176.61132960	     13.21014686	     14.35809319	    -12.03156246	    -45.00000000	    -36.57074909	     45.00000000	    -45.00000000	   3702.19981019	  -2444.15282566	     25.39617145	     30.10759951	   1068.17591677	     42.66294175	     12.72835185	    -13.87948594
      7.70000000	     18.32914104	     34.88345235	     57.45828335	      3.38523986	    797.85179503	    -39.33754964	     13.05496075	     35.80466394	     27.27710736	     45.00000000	    -45.00000000	    276.58742770	  -1369.38875386	     21.32984630	   -165.84013655	   2519.46003296	    176.76947905	     13.21138763	     14.44072048	    -12.01139093	    -45.00000000	    -36.61858462	     45.00000000	    -45.00000000	   3702.26760708	  -2444.40939413	     25.39011013	     29.90685543	   1068.28957772	     42.75943749	     12.70633551	    -13.90603017
      7.71000000	     18.05747422	     34.98027463	     57.74619090	      4.27340708	    797.00428191	    -39.12780842	     13.19055410	     35.50393537	     27.04394104	     45.00000000	    -45.00000000	    276.55154056	  -1369.51516622	     21.41679612	   -165.88702613	   2519.43291019	    176.90632015	     13.13481712	     14.41272285	    -12.19324246	    -45.00000000	    -36.50066541	     45.00000000	    -45.00000000	   3702.24755229	  -2444.36962893	     25.30329898	     29.76888432	   1068.32582720	     42.88640817	     12.66481233	    -13.86860204
      7.72000000	     18.03335387	     34.97537097	     57.84682734	      5.16117534	    796.15482990	    -38.92010102	     13.11302802	     35.74688827	     26.80032029	     45.00000000	    -45.00000000	    276.81112020	  -1369.27284068	     21.42252792	   -165.78157980	   2519.31782847	    177.02699811	     13.10569275	     14.26379018	    -12.14294860	    -45.00000000	    -36.28439338	     45.00000000	    -45.00000000	   3702.15124247	  -2444.45174675	     25.27328306	     29.32876190	   1068.35924742	     43.03123012	     12.49996020	    -13.69539269
      7.73000000	     17.76364609	     35.03926713	     58.21848048	      6.04939731	    795.30280835	    -38.71458671	     13.14129125	     35.35353655	     26.99214852	     45.00000000	    -45.00000000	    276.64189347	  -1369.62092995	     21.45508107	   -165.69625852	   2519.66454625	    177.15566565	     12.92482565	     14.44088720	    -12.37824751	    -45.00000000	    -36.47678760	     45.00000000	    -45.00000000	   3702.30449468	  -2444.57383882	     25.17182326	     29.21391584	   1068.40108443	     43.12642132	     12.67765426	    -13.88617897
      7.74000000	     17.76357466	     35.00363223	     58.15480562	      6.93728371	    794.43652185	    -38.50836812	     13.06466098	     35.73424255	     26.89646450	     45.00000000	    -45.00000000	    276.90050684	  -1369.59423371	     21.26432679	   -165.71726227	   2519.41075001	    177.27573475	     12.97244227	     14.33370232	    -12.31675976	    -45.00000000	    -36.24763396	     45.00000000	    -45.00000000	   3702.24341172	  -2444.65159210	     25.19407910	     28.85537006	   1068.53560235	     43.26286689	     12.51468788	    -13.75842722
      7.75000000	     17.50541041	     35.11031375	     58.51414110	      7.82424383	    793.56168908	    -38.30402854	     13.15868275	     35.46561976	     26.46148771	     45.00000000	    -45.00000000	    276.99254053	  -1369.44286168	     21.49239835	   -165.63778937	   2519.47567675	    177.38622277	     12.83059320	     14.23873463	    -12.48368701	    -45.00000000	    -36.13359048	     45.00000000	    -45.00000000	   3702.11472990	  -2444.65754637	     24.99169909	     28.34964215	   1068.56520570	     43.39200810	     12.41015450	    -13.62875810
      7.76000000	     17.53154514	     35.01761869	     58.53192483	      8.70414237	    792.69044849	    -38.10712609	     12.94192155	     35.83403942	     26.86174454	     45.00000000	    -45.00000000	    277.18543110	  -1369.64126993	     21.09745563	   -165.54726050	   2519.58081488	    177.50991660	     12.80785797	     14.32824652	    -12.36172459	    -45.00000000	    -36.13260779	     45.00000000	    -45.00000000	   3702.34007547	  -2444.93861158	     25.08463115	     27.97370875	   1068.68376550	     43.47525525	     12.51319913	    -13.76066272
      7.77000000	     17.24234581	     35.09826840	     58.84465034	      9.57232587	    791.84660945	    -37.92580674	     13.06567730	     35.58952703	     26.65260670	     45.00000000	    -45.00000000	    277.10587361	  -1369.74572261	     21.23736208	   -165.58401197	   2519.52742959	    177.63056095	     12.74225399	     14.31625377	    -12.59637496	    -45.00000000	    -36.06612890	     45.00000000	    -45.00000000	   3702.22756482	  -2444.87584273	     24.96781692	     27.73940799	   1068.77579825	     43.57564134	     12.44019688	    -13.69989572
      7.78000000	     17.18632127	     35.07563214	     58.85965567	     10.42423032	    791.03706240	    -37.76184410	     13.01481411	     35.71218402	     26.40284748	     45.00000000	    -45.00000000	    277.34459562	  -1369.64527934	     21.26123943	   -165.43452786	   2519.46719669	    177.75897464	     12.69910079	     14.17452096	    -12.57284263	    -45.00000000	    -35.91972449	     45.00000000	    -45.00000000	   3702.13416212	  -2444.99534494	     24.96967916	     27.29232214	   1068.88015343	     43.67520760	     12.32653741	    -13.60397497
      7.79000000	     16.95736867	     35.16562593	     59.28846637	     11.25849997	    790.27611788	    -37.61720095	     13.10217394	     35.49074189	     26.36570638	     45.00000000	    -45.00000000	    277.24013713	  -1369.77271721	     21.26501396	   -165.54486965	   2519.61205916	    177.84313298	     12.59923129	     14.23921873	    -12.70956161	    -45.00000000	    -35.89010835	     45.00000000	    -45.00000000	   3702.26245488	  -2444.99524166	     24.80343145	     27.04076664	   1068.83591272	     43.76916141	     12.33736837	    -13.59164163
      7.80000000	     17.14306467	     35.07628089	     59.07604058	     12.06667124	    789.56812855	    -37.48967863	     12.93685593	     35.87697150	     26.23049370	     45.00000000	    -45.00000000	    277.59869396	  -1369.53432144	     21.15772339	   -165.24401162	   2519.40411703	    177.98088895	     12.63021919	     14.05507178	    -12.62989303	    -45.00000000	    -35.74383038	     45.00000000	    -45.00000000	   3702.15094764	  -2445.23075325	     24.79624932	     26.73758485	   1068.91881592	     43.86469244	     12.20760397	    -13.49229413
      7.81000000	     16.75387805	     35.25885659	     59.55231303	     12.85664452	    788.90186138	    -37.37271089	     13.14029354	     35.42705005	     26.14250266	     45.00000000	    -45.00000000	    277.27623198	  -1369.86806209	     21.33330110	   -165.39038819	   2519.66936485	    178.04927576	     12.49352832	     14.23602292	    -12.86289390	    -45.00000000	    -35.78930257	     45.00000000	    -45.00000000	   3702.22547282	  -2445.15245258	     24.77660785	     26.68390319	   1068.87510553	     43.95510653	     12.27288870	    -13.55134625
      7.82000000	     16.86193291	     35.09225089	     59.47207195	     13.63110149	    788.25996071	    -37.25848040	     12.99418948	     35.67096618	     26.22806194	     45.00000000	    -45.00000000	    277.53198474	  -1369.88484844	     21.20340157	   -165.25265303	   2519.57211343	    178.17345643	     12.49339223	     14.16256741	    -12.82754932	    -45.00000000	    -35.72567416	     45.00000000	    -45.00000000	   3702.25227470	  -2445.25068169	     24.77228303	     26.46068024	   1068.88996808	     44.07109388	     12.25068897	    -13.52818902
      7.83000000	     16.59422511	     35.21826862	     59.88417587	     14.38601062	    787.64688995	    -37.14596518	     13.04731540	     35.62908323	     26.01040110	     45.00000000	    -45.00000000	    277.68390838	  -1369.78803133	     21.07595406	   -165.30717558	   2519.58928683	    178.22810827	     12.42955912	     13.97146933	    -12.92167164	    -45.00000000	    -35.53120299	     45.00000000	    -45.00000000	   3702.09108790	  -2445.19125699	     24.53269944	     26.08216199	   1068.93927959	     44.18599127	     11.96505313	    -13.29500985
      7.84000000	     16.74421851	     35.10611040	     59.72700837	     15.12421028	    787.06338449	    -37.03601939	     12.92545969	     35.65894790	     26.14944420	     45.00000000	    -45.00000000	    277.63624958	  -1369.94948335	     21.16431241	   -165.05412351	   2519.64680437	    178.33230184	     12.38898702	     14.18393508	    -12.88758596	    -45.00000000	    -35.61277863	     45.00000000	    -45.00000000	   3702.35324286	  -2445.48302199	     24.75508136	     25.94757889	   1068.99427054	     44.24140825	     12.28307052	    -13.60883380
      7.85000000	     16.60043413	     35.12371740	     59.93124398	     15.84677002	    786.51035319	    -36.92922674	     12.99412765	     35.66014252	     26.00537437	     45.00000000	    -45.00000000	    277.75842472	  -1369.97155629	     21.11323811	   -165.03718925	   2519.66511569	    178.39570918	     12.33520239	     14.12684231	    -13.00882930	    -45.00000000	    -35.53746408	     45.00000000	    -45.00000000	   3702.21748752	  -2445.40472754	     24.58469712	     25.73931567	   1068.96965137	     44.37235170	     12.10788268	    -13.45752486
      7.86000000	     16.43925409	     35.19619586	     60.25149150	     16.55003546	    785.99069197	    -36.82873159	     12.97791198	     35.70275448	     25.87740878	     45.00000000	    -45.00000000	    277.89681789	  -1369.88993110	     20.98935087	   -165.06470541	   2519.66648119	    178.41097216	     12.31491820	     13.78169828	    -13.03996426	    -45.00000000	    -35.33335896	     45.00000000	    -45.00000000	   3702.08757940	  -2445.38188213	     24.38066443	     25.30646322	   1069.04240661	     44.47939300	     11.79260377	    -13.18286946
      7.87000000	     16.50495707	     35.12274694	     60.16937550	     17.23101130	    785.50590162	    -36.73840658	     12.94279715	     35.62690389	     25.95248731	     45.00000000	    -45.00000000	    277.80697790	  -1370.00797285	     21.11816921	   -164.78707890	   2519.71545231	    178.49555665	     12.24284656	     14.26992394	    -13.09974702	    -45.00000000	    -35.48157188	     45.00000000	    -45.00000000	   3702.32653835	  -2445.60523673	     24.56856914	     25.22850922	   1069.05534761	     44.50652279	     12.20653275	    -13.60766566
